<svg width="140" height="42" viewBox="0 0 140 42" fill="none" xmlns="http://www.w3.org/2000/svg">
<g filter="url(#filter0_d)">
<circle cx="64" cy="17" r="17" fill="#F9CADA"/>
<path d="M6.332 8.296L4.176 7.932V6.196H13.136V7.932L10.448 8.296V25.012L16.44 24.76L18.204 19.524L20.472 19.832L19.604 27H4.12V25.32L6.332 25.04V8.296ZM34.7435 27.28C34.1275 27.28 33.6795 27.1493 33.3995 26.888C33.1195 26.6267 32.9795 26.2347 32.9795 25.712V24.956C32.4755 25.572 31.7661 26.1227 30.8515 26.608C29.9368 27.0747 29.0221 27.308 28.1075 27.308C26.3155 27.308 25.0368 26.8507 24.2715 25.936C23.5061 25.0027 23.1235 23.472 23.1235 21.344V13.448L21.7235 13.056V11.46L26.4835 11.096H26.5115L27.0715 11.488V21.344C27.0715 22.7067 27.2395 23.6587 27.5755 24.2C27.9115 24.7413 28.5368 25.012 29.4515 25.012C30.5528 25.012 31.5795 24.5827 32.5315 23.724V13.448L30.6555 13.028V11.46L35.7235 11.096H35.7795L36.4515 11.488V25.264H38.0195L37.9915 26.86C37.9168 26.8787 37.5715 26.9533 36.9555 27.084C36.3395 27.2147 35.6021 27.28 34.7435 27.28ZM45.1223 19.356L40.5023 13.392L39.0463 13.056V11.432H47.1383V13.056L45.3183 13.392L47.5303 16.5L48.2583 17.676L48.9863 16.5L51.2543 13.392L49.3503 13.056V11.432H55.4263V13.056L53.8303 13.392L49.4063 18.824L54.2503 25.096L55.7903 25.348V27H47.6983V25.348L49.3503 25.068L47.1943 21.792L46.3543 20.56L45.6823 21.764L43.3863 25.068L45.5423 25.348V27H38.8223V25.348L40.6143 25.068L45.1223 19.356ZM64.0074 27.308C62.9994 27.308 62.0941 27.224 61.2914 27.056C60.4887 26.888 59.5927 26.664 58.6034 26.384C57.9501 26.1973 57.5114 26.0947 57.2874 26.076L57.5394 20.896H59.8074L60.4234 24.508C60.6661 24.7693 61.0954 25.0027 61.7114 25.208C62.3461 25.4133 63.0647 25.516 63.8674 25.516C65.1181 25.516 66.0514 25.2453 66.6674 24.704C67.3021 24.144 67.6194 23.3693 67.6194 22.38C67.6194 21.7267 67.4327 21.1667 67.0594 20.7C66.6861 20.2147 66.1727 19.7853 65.5194 19.412C64.8661 19.02 63.9701 18.572 62.8314 18.068C61.2821 17.3587 59.9941 16.5187 58.9674 15.548C57.9594 14.5587 57.4554 13.224 57.4554 11.544C57.4554 10.4987 57.7261 9.556 58.2674 8.716C58.8087 7.85733 59.6114 7.18533 60.6754 6.7C61.7581 6.196 63.0741 5.944 64.6234 5.944C65.5381 5.944 66.3407 6.00933 67.0314 6.14C67.7407 6.27067 68.5061 6.448 69.3274 6.672C69.8127 6.80267 70.1767 6.88667 70.4194 6.924L70.2514 11.824H68.0114L67.4234 8.38C67.2554 8.212 66.9194 8.05333 66.4154 7.904C65.9114 7.736 65.3514 7.652 64.7354 7.652C63.6154 7.652 62.7661 7.91333 62.1874 8.436C61.6274 8.94 61.3474 9.62133 61.3474 10.48C61.3474 11.1707 61.5527 11.768 61.9634 12.272C62.3927 12.776 62.9061 13.2053 63.5034 13.56C64.1007 13.896 65.0434 14.3813 66.3314 15.016C67.3767 15.52 68.2727 16.0147 69.0194 16.5C69.7661 16.9853 70.4101 17.62 70.9514 18.404C71.4927 19.1693 71.7634 20.0747 71.7634 21.12C71.7634 22.1467 71.5021 23.1267 70.9794 24.06C70.4754 24.9933 69.6354 25.768 68.4594 26.384C67.3021 27 65.8181 27.308 64.0074 27.308ZM89.3065 18.712C89.3065 20.28 88.9798 21.7173 88.3265 23.024C87.6918 24.3307 86.7492 25.376 85.4985 26.16C84.2665 26.9253 82.7918 27.308 81.0745 27.308C80.7012 27.308 80.3092 27.2707 79.8985 27.196C79.5065 27.14 79.1892 27.0653 78.9465 26.972L79.0305 29.296V31.844L81.6345 32.18V33.776H73.3185V32.18L75.1385 31.844V14.092L73.3185 13.588V11.656L77.9385 11.068H77.9945L78.6945 11.628V13.196C79.1612 12.6173 79.7958 12.1133 80.5985 11.684C81.4012 11.2547 82.2785 11.04 83.2305 11.04C85.0038 11.04 86.4598 11.6747 87.5985 12.944C88.7372 14.1947 89.3065 16.1173 89.3065 18.712ZM81.7745 13.364C81.2145 13.364 80.6825 13.4853 80.1785 13.728C79.6745 13.9707 79.2918 14.2413 79.0305 14.54V24.928C79.1612 25.1147 79.4225 25.2733 79.8145 25.404C80.2252 25.5347 80.6732 25.6 81.1585 25.6C82.3718 25.6 83.3332 25.0773 84.0425 24.032C84.7705 22.968 85.1345 21.3067 85.1345 19.048C85.1345 17.144 84.8265 15.7253 84.2105 14.792C83.5945 13.84 82.7825 13.364 81.7745 13.364ZM91.2879 22.632C91.2879 20.9333 92.1373 19.6547 93.8359 18.796C95.5533 17.9373 97.7653 17.4987 100.472 17.48V16.836C100.472 16.0707 100.388 15.4733 100.22 15.044C100.071 14.6147 99.7813 14.2973 99.3519 14.092C98.9413 13.868 98.3346 13.756 97.5319 13.756C96.6173 13.756 95.7959 13.8773 95.0679 14.12C94.3399 14.344 93.5839 14.6427 92.7999 15.016L91.9319 13.224C92.2119 12.9813 92.6786 12.692 93.3319 12.356C94.0039 12.02 94.7973 11.7307 95.7119 11.488C96.6266 11.2267 97.5693 11.096 98.5399 11.096C99.9773 11.096 101.097 11.2827 101.9 11.656C102.721 12.0293 103.309 12.6267 103.664 13.448C104.019 14.2693 104.196 15.3707 104.196 16.752V25.32H105.708V26.888C105.335 26.9813 104.803 27.0747 104.112 27.168C103.421 27.2613 102.815 27.308 102.292 27.308C101.657 27.308 101.228 27.2147 101.004 27.028C100.799 26.8413 100.696 26.4587 100.696 25.88V25.124C100.192 25.684 99.5386 26.188 98.7359 26.636C97.9333 27.084 97.0279 27.308 96.0199 27.308C95.1613 27.308 94.3679 27.1307 93.6399 26.776C92.9306 26.4027 92.3613 25.8707 91.9319 25.18C91.5026 24.4707 91.2879 23.6213 91.2879 22.632ZM97.8119 24.984C98.2039 24.984 98.6519 24.872 99.1559 24.648C99.6599 24.4053 100.099 24.116 100.472 23.78V19.188C98.7919 19.188 97.5319 19.4773 96.6919 20.056C95.8706 20.616 95.4599 21.344 95.4599 22.24C95.4599 23.136 95.6653 23.8173 96.0759 24.284C96.5053 24.7507 97.0839 24.984 97.8119 24.984ZM107.091 19.3C107.091 17.6947 107.409 16.2667 108.043 15.016C108.697 13.7653 109.621 12.7947 110.815 12.104C112.029 11.3947 113.438 11.04 115.043 11.04C115.79 11.04 116.434 11.096 116.975 11.208C117.517 11.32 118.123 11.4693 118.795 11.656L119.607 11.88L119.439 16.668H117.003L116.303 13.588C116.191 13.1027 115.641 12.86 114.651 12.86C113.606 12.86 112.785 13.3173 112.187 14.232C111.609 15.1467 111.31 16.5747 111.291 18.516C111.291 20.5693 111.646 22.1467 112.355 23.248C113.065 24.3307 114.007 24.872 115.183 24.872C116.602 24.872 117.909 24.4893 119.103 23.724L119.747 25.18C119.262 25.7027 118.515 26.188 117.507 26.636C116.518 27.084 115.445 27.308 114.287 27.308C111.898 27.308 110.097 26.5707 108.883 25.096C107.689 23.6213 107.091 21.6893 107.091 19.3ZM129.031 27.308C126.567 27.308 124.728 26.5893 123.515 25.152C122.32 23.696 121.723 21.7173 121.723 19.216C121.723 17.536 122.031 16.08 122.647 14.848C123.282 13.616 124.168 12.6733 125.307 12.02C126.446 11.3667 127.762 11.04 129.255 11.04C131.122 11.04 132.559 11.5347 133.567 12.524C134.575 13.4947 135.098 14.8853 135.135 16.696C135.135 17.928 135.06 18.8427 134.911 19.44H125.811C125.886 21.1387 126.287 22.464 127.015 23.416C127.743 24.3493 128.779 24.816 130.123 24.816C130.851 24.816 131.598 24.6947 132.363 24.452C133.147 24.2093 133.763 23.92 134.211 23.584L134.911 25.124C134.407 25.6653 133.586 26.1693 132.447 26.636C131.327 27.084 130.188 27.308 129.031 27.308ZM131.215 17.76C131.252 17.2373 131.271 16.836 131.271 16.556C131.271 14.0733 130.44 12.832 128.779 12.832C127.864 12.832 127.155 13.196 126.651 13.924C126.147 14.652 125.867 15.9307 125.811 17.76H131.215Z" fill="black"/>
</g>
<defs>
<filter id="filter0_d" x="0.120117" y="0" width="139.015" height="42" filterUnits="userSpaceOnUse" color-interpolation-filters="sRGB">
<feFlood flood-opacity="0" result="BackgroundImageFix"/>
<feColorMatrix in="SourceAlpha" type="matrix" values="0 0 0 0 0 0 0 0 0 0 0 0 0 0 0 0 0 0 127 0"/>
<feOffset dy="4"/>
<feGaussianBlur stdDeviation="2"/>
<feColorMatrix type="matrix" values="0 0 0 0 0 0 0 0 0 0 0 0 0 0 0 0 0 0 0.25 0"/>
<feBlend mode="normal" in2="BackgroundImageFix" result="effect1_dropShadow"/>
<feBlend mode="normal" in="SourceGraphic" in2="effect1_dropShadow" result="shape"/>
</filter>
</defs>
</svg>
